<svg id="Capa_1" enable-background="new 0 0 511.933 511.933" height="512" viewBox="0 0 511.933 511.933" width="512" xmlns="http://www.w3.org/2000/svg"><g><g><path d="m428.635 43.338 14.796-10.263 17.104 24.661-9.785 23.83-29.672 3.537c-9.446-13.62-6.063-32.318 7.557-41.765z" fill="#665e66"/><path d="m315.057 158.391h155.211v31.42h-155.211z" fill="#b4acb7" transform="matrix(.822 -.57 .57 .822 -29.212 254.829)"/><path d="m201.029 142.671h70.903v58.864h-70.903z" fill="#665e66" transform="matrix(.822 -.57 .57 .822 -55.92 165.461)"/><path d="m166.914 241.301 138.489-96.055 55.609 80.175-138.49 96.055" fill="#665e66"/><path d="m281.386 120.011-122.709 85.109-24.132-34.793 122.699-85.103" fill="#b4acb7"/><path d="m269.32 102.614-122.709 85.109-12.066-17.396 122.699-85.103" fill="#958b95"/><path d="m166.913 241.303 55.608 80.175s-33.221 21.895-24.826 56.352l-92.673 91.323c-14.915 14.699-39.477 12.396-51.409-4.808l-40.123-57.85c-10.338-14.906-7.057-35.336 7.451-46.213 1.819-1.36 3.705-2.767 5.66-4.197 31.426-23.079 80.059-54.974 114.545-59.788 0 0-.122-37.037 25.767-54.994z" fill="#f19028"/><path d="m154.027 314.877c-34.485 4.812-83.12 36.712-114.546 59.791-1.948 1.429-3.84 2.838-5.661 4.197-14.502 10.878-17.785 31.304-7.444 46.212l-12.881-18.571c-10.341-14.909-7.065-35.346 7.446-46.222 1.822-1.36 3.702-2.76 5.661-4.197 31.426-23.079 80.059-54.969 114.544-59.781 0 0-.125-37.047 25.769-54.998l12.881 18.571c-25.886 17.963-25.769 54.998-25.769 54.998z" fill="#f17e00"/><path d="m26.601 356.086 78.422 113.067c-14.915 14.699-39.477 12.396-51.409-4.808l-40.124-57.85c-10.338-14.906-7.057-35.336 7.451-46.213 1.818-1.36 3.704-2.766 5.66-4.196z" fill="#665e66"/><path d="m39.482 374.667c.002-.001.003-.002.005-.004l-12.886-18.578c-1.955 1.43-3.841 2.837-5.66 4.197-14.508 10.878-17.789 31.308-7.451 46.213l12.854 18.532c-10.3-14.904-7.009-35.297 7.477-46.163 1.821-1.359 3.713-2.767 5.661-4.197z" fill="#544f57"/><path d="m310.1 98.002h199.075v45.749h-199.075z" fill="#b4acb7" transform="matrix(.822 -.57 .57 .822 4.148 255.013)"/><path d="m302.618 100.343h199.075v19.492h-199.075z" fill="#958b95" transform="matrix(.822 -.57 .57 .822 8.962 248.825)"/><path d="m332.871 157.342h132.862v13.448h-132.862z" fill="#958b95" transform="matrix(.822 -.57 .57 .822 -22.309 256.823)"/><path d="m117.202 169.625c6.532-4.531 15.5-2.908 20.03 3.624l19.649 28.33c4.531 6.532 2.908 15.5-3.624 20.03-6.532 4.531-15.5 2.908-20.03-3.624l-19.649-28.33c-4.53-6.532-2.908-15.5 3.624-20.03z" fill="#665e66"/><path d="m125.517 206.863-11.933-17.204c-4.534-6.537-2.911-15.506 3.617-20.034 6.529-4.528 15.498-2.905 20.032 3.632l11.933 17.204c-4.528-6.528-13.497-8.152-20.026-3.623-6.528 4.527-8.151 13.497-3.623 20.025z" fill="#544f57"/><path d="m262.658 68.738c6.532-4.531 15.5-2.908 20.03 3.624l19.649 28.33c4.53 6.532 2.908 15.5-3.624 20.03-6.532 4.531-15.5 2.908-20.03-3.624l-19.649-28.33c-4.53-6.531-2.908-15.499 3.624-20.03z" fill="#665e66"/><g fill="#544f57"><path d="m270.974 105.977-11.933-17.204c-4.534-6.537-2.911-15.506 3.617-20.034 6.529-4.528 15.498-2.905 20.032 3.632l11.933 17.204c-4.528-6.528-13.498-8.152-20.026-3.623-6.529 4.526-8.151 13.496-3.623 20.025z"/><path d="m303.181 213.742-67.717 46.968c-5.561 3.857-13.195 2.475-17.051-3.085-3.857-5.561-2.475-13.195 3.085-17.051l67.717-46.968c5.56-3.857 13.195-2.475 17.051 3.085 3.857 5.56 2.476 13.194-3.085 17.051z"/></g></g><g><path d="m510.596 78.716-26.064-37.591c-1.133-1.634-2.869-2.752-4.826-3.106-1.958-.355-3.975.083-5.609 1.217l-11.693 8.11-12.826-18.492c-2.36-3.402-7.031-4.248-10.435-1.888l-14.793 10.26c-8.231 5.71-13.747 14.282-15.53 24.139-1.33 7.35-.463 14.758 2.43 21.464l-46.347 32.149c-3.403 2.36-4.248 7.032-1.887 10.435 2.359 3.403 7.031 4.249 10.434 1.887l103.032-71.468 17.518 25.268-151.219 104.878-17.518-25.259 23.792-16.502c3.403-2.36 4.248-7.032 1.888-10.435-2.361-3.402-7.032-4.248-10.435-1.888l-23.794 16.503-5.132-7.399c-1.134-1.634-2.869-2.751-4.827-3.105-1.958-.353-3.976.084-5.608 1.217l-23.814 16.517-11.068-15.957 15.447-10.714c2.791 1.223 5.81 1.854 8.851 1.854 4.303 0 8.648-1.263 12.443-3.895 9.917-6.879 12.389-20.543 5.511-30.46l-19.646-28.324c-6.879-9.918-20.545-12.388-30.461-5.51-6.472 4.49-9.749 11.87-9.348 19.212l-114.803 79.626c-6.736-2.948-14.797-2.465-21.271 2.025-9.917 6.879-12.389 20.543-5.51 30.46l19.645 28.324c4.247 6.122 11.077 9.405 18.017 9.405 4.302 0 8.648-1.263 12.443-3.896 6.473-4.489 9.749-11.869 9.349-19.212l28.762-19.949 11.068 15.956-44.039 30.545c-.011.008-.023.014-.034.021-22.227 15.419-27.415 42.498-28.623 54.814-21.506 4.579-58.265 19.923-117.532 64.306-17.82 13.341-21.829 38.142-9.126 56.465l40.12 57.846c6.949 10.019 17.899 16.417 30.041 17.551 1.292.121 2.581.181 3.865.18 10.784 0 21.151-4.215 28.916-11.865l27.273-26.874c2.949-2.907 2.985-7.654.078-10.604s-7.654-2.986-10.604-.078l-20.929 20.623-69.138-99.682c29.596-21.265 74.074-49.755 105.204-54.098 3.702-.516 6.458-3.697 6.462-7.435 0-.301.239-27.402 16.769-43.989l46.902 67.625c-9.76 8.498-27.323 28.004-22.791 55.396l-41.155 40.557c-2.95 2.907-2.985 7.654-.078 10.603 2.907 2.95 7.653 2.985 10.603.078l44.054-43.407c1.879-1.851 2.647-4.554 2.022-7.116-1.981-8.127-1.387-16.123 1.753-23.884 7.714 5.313 20.779 12.003 37.691 12.003 7.025 0 14.713-1.155 22.954-4.042 8.618-3.02 15.525-9.605 18.95-18.066 3.412-8.43 3.034-17.924-1.037-26.047-3.183-6.353-7.419-13.129-12.608-20.207l92.564-64.202c3.402-2.36 4.248-7.032 1.888-10.435l-.525-.757 102.985-71.429c3.402-2.36 4.248-7.032 1.888-10.435l-11.05-15.933 48.232-33.451c3.403-2.358 4.249-7.03 1.889-10.433zm-86.593-4.732c-.878-3.201-1.035-6.584-.427-9.947 1.071-5.916 4.381-11.06 9.32-14.487l8.632-5.987 8.553 12.332-21.304 14.778zm-278.519 97.941 109.45-75.913 15.58 22.462-109.45 75.913zm121.475-96.981c1.195-.829 2.563-1.227 3.918-1.227 2.185 0 4.337 1.034 5.673 2.962l19.645 28.324c2.165 3.122 1.387 7.424-1.735 9.59-2.531 1.756-5.838 1.576-8.154-.219-.1-.086-.197-.177-.301-.258-.419-.366-.805-.781-1.136-1.258l-19.645-28.323c-2.165-3.123-1.387-7.426 1.735-9.591zm-127.512 138.777-19.645-28.324c-2.165-3.122-1.387-7.425 1.735-9.59 3.123-2.167 7.425-1.387 9.592 1.735l19.644 28.323c2.166 3.123 1.387 7.425-1.735 9.591-3.122 2.166-7.424 1.388-9.591-1.735zm-60.481 257.471c-7.726-.722-14.693-4.792-19.114-11.167l-40.119-57.845c-7.943-11.456-5.618-26.884 5.218-35.464l69.948 100.851c-4.743 2.848-10.302 4.151-15.933 3.625zm129.053-291.121 45.925-31.853 11.067 15.957-45.924 31.852zm63.907 142.645c2.172 4.334 2.365 9.2.543 13.702-1.808 4.467-5.456 7.943-10.008 9.539-22.747 7.971-40.009-.982-47.953-6.678 5.912-7.318 12.128-11.521 12.18-11.556.038-.025.073-.055.111-.081.011-.008.023-.013.035-.02l3.756-2.605c3.49 6.335 9.717 12.656 19.956 14.509.452.082.901.121 1.344.121 3.557 0 6.714-2.541 7.369-6.165.737-4.075-1.968-7.976-6.043-8.714-5.968-1.079-8.847-5.146-10.215-8.36l17.397-12.066c4.795 6.507 8.669 12.67 11.528 18.374zm-47.478-11.691-47.048-67.834 126.133-87.484 47.048 67.834zm230.481-170.105-96.823 67.155-6.779-9.773 96.825-67.154z"/><path d="m284.963 187.459-67.702 46.957c-8.947 6.206-11.178 18.534-4.972 27.482 3.006 4.334 7.521 7.239 12.711 8.178 1.187.215 2.376.321 3.558.321 3.984 0 7.87-1.208 11.213-3.527l67.701-46.957c4.335-3.007 7.239-7.521 8.178-12.711.939-5.191-.199-10.437-3.205-14.771-6.206-8.946-18.534-11.179-27.482-4.972zm-53.739 67.088c-1.042.723-2.303.998-3.553.771-1.249-.226-2.335-.925-3.058-1.968-1.493-2.153-.957-5.119 1.196-6.613l13.272-9.205 5.416 7.809zm69.67-50.015c-.227 1.249-.926 2.335-1.968 3.059l-42.107 29.205-5.416-7.809 42.108-29.205c.824-.572 1.767-.846 2.701-.846 1.506 0 2.99.713 3.912 2.042.722 1.043.995 2.305.77 3.554z"/></g></g></svg>